<svg width="107" height="46" viewBox="0 0 107 46" fill="none" xmlns="http://www.w3.org/2000/svg">
<g clip-path="url(#clip0)">
<path d="M52.5292 20.4179H48.6826L57.3715 0.110779H60.7605L69.4184 20.4179H65.4481L63.5434 15.7208H54.4773L52.5292 20.4179ZM55.5842 12.8066H62.4055L59.0103 4.27918L55.5842 12.8066Z" fill="#242424"/>
<path d="M76.8519 20.4177H73.1908V0.147488H80.4511C81.4159 0.14134 82.3744 0.23971 83.3206 0.4303C84.1617 0.596299 84.9656 0.909851 85.6954 1.35251C86.3756 1.77673 86.9384 2.37924 87.3095 3.09242C87.7238 3.92242 87.9279 4.84463 87.897 5.77299C87.897 7.26083 87.4826 8.46585 86.6601 9.40036C85.8067 10.3472 84.6873 11.0173 83.4443 11.3247L88.7442 20.4239H84.5142L79.777 11.8534H76.8519V20.4177ZM76.8519 8.86548H80.0182C80.5562 8.86548 81.0881 8.81629 81.6199 8.71793C82.0961 8.63185 82.5538 8.4597 82.9743 8.20763C83.3577 7.98015 83.6793 7.6666 83.9081 7.28542C84.1493 6.84891 84.273 6.35091 84.2482 5.85291C84.2668 5.39181 84.1555 4.93685 83.9267 4.53722C83.7102 4.18678 83.4134 3.89167 83.0485 3.68879C82.6527 3.46746 82.2198 3.3199 81.7745 3.25227C81.2674 3.1785 80.7603 3.14161 80.247 3.14161H76.8581V8.86548H76.8519Z" fill="#242424"/>
<path d="M100.674 20.4177H97.019V3.14158H90.7667V0.147461H107V3.14158H100.674V20.4177Z" fill="#242424"/>
<path d="M107 28.8839H0.00012207V45.994H107V28.8839Z" fill="#242424"/>
<path d="M4.02609 20.4178H0.14856L8.88691 0H12.3006L21.0019 20.4178H17.013L15.0959 15.6961H5.98031L4.02609 20.4178ZM7.08111 12.7634H13.9456L10.5381 4.18685L7.08111 12.7634Z" fill="#242424"/>
<path d="M37.9344 15.4686H38.0086V0H41.5707V20.4178H37.2046L27.9715 5.02914H27.8973V20.4178H24.3352V0H28.7817L37.9344 15.4686Z" fill="#242424"/>
</g>
<defs>
<clipPath id="clip0">
<rect width="107" height="46" fill="white"/>
</clipPath>
</defs>
</svg>
