<svg width="26" height="27" viewBox="0 0 26 27" fill="none" xmlns="http://www.w3.org/2000/svg">
<g filter="url(#filter0_d)">
<path fill-rule="evenodd" clip-rule="evenodd" d="M24 12C24 18.0751 19.0751 23 13 23C6.92487 23 2 18.0751 2 12C2 5.92487 6.92487 1 13 1C19.0751 1 24 5.92487 24 12ZM17.9086 6.7971C18.1785 7.06698 18.1785 7.50453 17.9086 7.7744L13.8308 11.8522L17.9098 15.9312C18.1797 16.2011 18.1797 16.6387 17.9098 16.9085C17.6399 17.1784 17.2024 17.1784 16.9325 16.9085L12.8535 12.8295L8.77444 16.9085C8.50457 17.1784 8.06702 17.1784 7.79715 16.9085C7.52728 16.6387 7.52728 16.2011 7.79715 15.9312L11.8762 11.8522L7.79834 7.7744C7.52847 7.50452 7.52847 7.06697 7.79834 6.7971C8.06821 6.52723 8.50576 6.52723 8.77563 6.7971L12.8535 10.8749L16.9313 6.7971C17.2012 6.52723 17.6387 6.52723 17.9086 6.7971Z" fill="#242424"/>
</g>
<defs>
<filter id="filter0_d" x="0" y="0.5" width="26" height="26" filterUnits="userSpaceOnUse" color-interpolation-filters="sRGB">
<feFlood flood-opacity="0" result="BackgroundImageFix"/>
<feColorMatrix in="SourceAlpha" type="matrix" values="0 0 0 0 0 0 0 0 0 0 0 0 0 0 0 0 0 0 127 0"/>
<feOffset dy="1.5"/>
<feGaussianBlur stdDeviation="1"/>
<feColorMatrix type="matrix" values="0 0 0 0 0 0 0 0 0 0 0 0 0 0 0 0 0 0 0.1 0"/>
<feBlend mode="normal" in2="BackgroundImageFix" result="effect1_dropShadow"/>
<feBlend mode="normal" in="SourceGraphic" in2="effect1_dropShadow" result="shape"/>
</filter>
</defs>
</svg>
