<svg width="85" height="44" viewBox="0 0 85 44" fill="none" xmlns="http://www.w3.org/2000/svg">
<g clip-path="url(#clip0)">
<path d="M31.4889 10.2892C31.0961 10.7166 30.6158 11.0552 30.0802 11.2821C29.5586 11.5085 28.9963 11.6271 28.4273 11.6308C27.9329 11.6359 27.4416 11.551 26.9779 11.3802C26.5601 11.226 26.1828 10.9796 25.8745 10.6596C25.5738 10.3391 25.3525 9.95327 25.228 9.5328C25.089 9.05631 25.0574 8.55516 25.1357 8.06516C25.2026 7.54737 25.3723 7.04797 25.635 6.59596C25.8862 6.16659 26.2127 5.78548 26.5992 5.47071C26.9883 5.15522 27.4309 4.91121 27.9061 4.75012C28.3949 4.58188 28.9087 4.49665 29.4259 4.49799C29.8705 4.48966 30.3118 4.57561 30.7203 4.75012C31.0823 4.90813 31.3971 5.15633 31.6344 5.47071C31.8776 5.80563 32.0433 6.18989 32.1196 6.59596C32.2095 7.08107 32.2163 7.57777 32.14 8.06516L32.0367 8.71571H27.1423C27.1529 9.0761 27.3012 9.41892 27.5571 9.67443C27.6907 9.79584 27.8472 9.88982 28.0175 9.95098C28.1878 10.0121 28.3685 10.0393 28.5494 10.0308C28.8665 10.0393 29.18 9.96125 29.4557 9.80516C29.7219 9.64451 29.9616 9.44397 30.1663 9.21063L31.4889 10.2892ZM30.124 7.29632C30.1566 7.13648 30.153 6.97142 30.1135 6.81313C30.074 6.65485 29.9995 6.50729 29.8955 6.38118C29.7877 6.25384 29.6514 6.15332 29.4976 6.08765C29.3438 6.02199 29.1767 5.99299 29.0096 6.00298C28.7956 6.00064 28.5832 6.03866 28.3835 6.11504C28.2053 6.18369 28.0393 6.28038 27.892 6.40141C27.7527 6.51636 27.6337 6.65365 27.5398 6.80762C27.4477 6.95646 27.381 7.11951 27.3426 7.29009L30.124 7.29632Z" fill="white"/>
<path d="M37.3394 10.6095H37.3112C37.0436 10.96 36.6832 11.2294 36.2703 11.3877C35.8665 11.5435 35.4372 11.6237 35.0041 11.6243C34.699 11.6263 34.3955 11.5817 34.1041 11.492C33.8371 11.4111 33.5902 11.2754 33.3794 11.0936C33.1771 10.9158 33.0245 10.689 32.9364 10.4352C32.8397 10.1423 32.8155 9.8305 32.866 9.52631C32.9174 9.00693 33.1546 8.52315 33.5344 8.16294C33.905 7.83711 34.3416 7.59405 34.8147 7.45013C35.3165 7.29458 35.8361 7.20306 36.3611 7.17777C36.9006 7.14975 37.3905 7.13575 37.8308 7.13575C37.8616 6.97613 37.8521 6.81142 37.8032 6.65635C37.7543 6.50127 37.6676 6.36065 37.5507 6.24707C37.3058 6.02411 36.9824 5.90612 36.6507 5.91868C36.3123 5.91645 35.9779 5.99041 35.6724 6.13501C35.3581 6.28602 35.0705 6.48681 34.821 6.72954L33.8646 5.5825C34.3036 5.22044 34.8069 4.9433 35.3484 4.76542C35.8855 4.58508 36.4485 4.49258 37.0154 4.4915C37.5249 4.47363 38.0333 4.55232 38.5133 4.72339C38.8653 4.85452 39.1677 5.09108 39.3788 5.40041C39.5862 5.73137 39.7048 6.10968 39.7232 6.4992C39.7531 7.00162 39.7273 7.5058 39.6465 8.00264L39.1675 11.4562H37.2267L37.3394 10.6095ZM37.114 8.48355C36.9575 8.48355 36.7555 8.49133 36.5161 8.50534C36.2782 8.51905 36.0425 8.55871 35.8133 8.62362C35.5947 8.68335 35.3893 8.78311 35.2076 8.91778C35.1219 8.98289 35.0508 9.06488 34.9985 9.15861C34.9463 9.25235 34.9141 9.35581 34.9039 9.4625C34.8824 9.57415 34.8972 9.68972 34.9462 9.79245C34.9945 9.88246 35.0617 9.96103 35.1434 10.0228C35.2328 10.0905 35.3358 10.1383 35.4455 10.1629C35.5582 10.1903 35.6738 10.2044 35.7898 10.2049C35.9967 10.2048 36.2026 10.1765 36.4018 10.1208C36.5956 10.0684 36.7806 9.98814 36.9512 9.88272C37.1147 9.78191 37.2562 9.64962 37.3675 9.49363C37.4835 9.32768 37.5561 9.13568 37.5788 8.9349L37.6352 8.48666L37.114 8.48355Z" fill="white"/>
<path d="M47.6637 11.4626H45.7213L45.834 10.5677H45.8059C45.6966 10.7052 45.5716 10.8295 45.4333 10.9381C45.2697 11.0703 45.093 11.1855 44.9059 11.282C44.7016 11.3871 44.4871 11.4711 44.2657 11.5326C44.0393 11.5975 43.8048 11.6305 43.5692 11.6307C43.1082 11.6397 42.6505 11.5517 42.2262 11.3723C41.8514 11.2102 41.5213 10.9609 41.2636 10.6455C41.0041 10.3198 40.8236 9.93903 40.7362 9.5327C40.6362 9.06846 40.624 8.58977 40.7002 8.12109C40.7648 7.64841 40.9026 7.18852 41.1087 6.75772C41.3079 6.33484 41.5719 5.94527 41.8913 5.60291C42.2032 5.26987 42.5747 4.99753 42.9869 4.79983C43.4077 4.59694 43.87 4.4936 44.3377 4.49789C44.75 4.49327 45.1598 4.56233 45.5476 4.70177C45.8986 4.8255 46.1931 5.07081 46.3772 5.3928H46.4053L47.0518 0.890259H49.1476L47.6637 11.4626ZM46.2003 8.06506C46.2754 7.55146 46.1862 7.13125 45.9326 6.81998C45.6791 6.5087 45.2862 6.35307 44.7509 6.35307C44.2703 6.33103 43.8005 6.49887 43.444 6.81998C43.0963 7.15022 42.875 7.59038 42.8179 8.06506C42.7427 8.57658 42.8299 8.99161 43.0793 9.31015C43.3287 9.62868 43.72 9.78432 44.2532 9.77705C44.7358 9.79729 45.2074 9.62982 45.5679 9.31015C45.9188 8.98155 46.1426 8.54091 46.2003 8.06506Z" fill="white"/>
<path d="M53.1198 12.5676C52.932 12.9318 52.7536 13.2534 52.5845 13.5325C52.427 13.7997 52.2254 14.0385 51.9882 14.2391C51.7435 14.4382 51.4608 14.5859 51.157 14.6733C50.7515 14.7815 50.3324 14.8308 49.9127 14.8196C49.3912 14.8233 48.8729 14.738 48.3804 14.5675L48.9 12.8555C49.1929 12.9957 49.5141 13.0675 49.8391 13.0656C50.0392 13.0701 50.2388 13.0439 50.4308 12.9878C50.5802 12.9418 50.7187 12.8661 50.8377 12.7652C50.9545 12.662 51.0543 12.5412 51.1336 12.4073C51.2181 12.2688 51.312 12.1053 51.4153 11.9186L51.6282 11.517L49.6028 4.66907H51.8817L53.0071 9.15915H53.0353L55.1734 4.66907H57.3396L53.1198 12.5676Z" fill="white"/>
<path d="M62.104 26.0129H62.0758C61.8083 26.3634 61.4479 26.6329 61.0349 26.7911C60.6314 26.9481 60.202 27.0288 59.7687 27.0292C59.4637 27.0307 59.1602 26.9861 58.8687 26.8969C58.6015 26.8159 58.3545 26.6795 58.144 26.4969C57.9419 26.3196 57.7894 26.0933 57.701 25.8401C57.6044 25.5472 57.5802 25.2354 57.6306 24.9312C57.682 24.4118 57.9192 23.9281 58.299 23.5678C58.6686 23.2406 59.1055 22.9974 59.5793 22.855C60.081 22.699 60.6007 22.6069 61.1257 22.5811C61.6662 22.5531 62.1561 22.5391 62.5954 22.5391C62.6261 22.3797 62.6165 22.2153 62.5676 22.0605C62.5187 21.9057 62.432 21.7653 62.3153 21.652C62.0704 21.429 61.7471 21.311 61.4153 21.3236C61.077 21.3214 60.7425 21.3953 60.437 21.5399C60.1227 21.6909 59.8351 21.8917 59.5856 22.1344L58.6292 20.9874C59.0681 20.6249 59.5714 20.3472 60.113 20.1688C60.6502 19.9889 61.2132 19.8969 61.78 19.8964C62.2894 19.8781 62.7978 19.9563 63.2779 20.1267C63.63 20.2585 63.9324 20.4955 64.1434 20.8053C64.3508 21.1363 64.4694 21.5146 64.4878 21.9041C64.517 22.4066 64.4908 22.9107 64.4095 23.4075L63.9321 26.8611H61.9913L62.104 26.0129ZM61.8786 23.8869C61.7221 23.8869 61.5201 23.8947 61.2807 23.9087C61.0427 23.9215 60.8069 23.9612 60.5779 24.027C60.3597 24.0864 60.1547 24.1862 59.9737 24.3211C59.8876 24.3857 59.816 24.4676 59.7637 24.5614C59.7114 24.6552 59.6795 24.759 59.6701 24.8659C59.6486 24.977 59.6634 25.0921 59.7123 25.1942C59.7606 25.2847 59.8278 25.3638 59.9096 25.4261C59.9994 25.4928 60.1023 25.54 60.2116 25.5647C60.3244 25.592 60.4399 25.6062 60.556 25.6067C60.7629 25.6066 60.9688 25.5783 61.168 25.5226C61.3617 25.4707 61.5467 25.391 61.7174 25.2861C61.8821 25.1871 62.0252 25.0564 62.1384 24.9016C62.2539 24.7355 62.3264 24.5436 62.3497 24.3429L62.4061 23.8947L61.8786 23.8869Z" fill="white"/>
<path d="M72.4268 26.8659H70.486L70.5987 25.971H70.5705C70.4609 26.1081 70.3359 26.2324 70.198 26.3414C70.0343 26.4731 69.8576 26.5878 69.6705 26.6838C69.4663 26.7894 69.2518 26.8739 69.0303 26.9359C68.8045 27.0009 68.5705 27.0339 68.3354 27.034C67.8735 27.0404 67.4154 26.9503 66.9909 26.7694C66.616 26.6068 66.2859 26.357 66.0283 26.041C65.7684 25.7162 65.5879 25.3358 65.5008 24.9298C65.4009 24.465 65.3887 23.9858 65.4648 23.5166C65.5299 23.044 65.6677 22.5842 65.8733 22.1533C66.0729 21.7311 66.3369 21.3421 66.6559 21C66.9673 20.666 67.339 20.3931 67.7516 20.1954C68.1727 19.9937 68.6349 19.8909 69.1023 19.895C69.514 19.8906 69.9231 19.9591 70.3107 20.0973C70.6628 20.2207 70.958 20.4668 71.1418 20.7899H71.17L71.8164 16.2874H73.9263L72.4268 26.8659ZM70.9649 23.4668C71.0401 22.9548 70.9508 22.533 70.6973 22.2217C70.4437 21.9105 70.0508 21.7455 69.5155 21.7455C69.0337 21.7262 68.5638 21.8974 68.2086 22.2217C67.8606 22.5518 67.6393 22.992 67.5825 23.4668C67.5074 23.9804 67.595 24.4006 67.8423 24.7119C68.0896 25.0232 68.4825 25.1882 69.0178 25.1882C69.5018 25.2063 69.9738 25.0354 70.3326 24.7119C70.684 24.3837 70.9079 23.9429 70.9649 23.4668Z" fill="white"/>
<path d="M80.7394 25.6907C80.3482 26.1198 79.8674 26.4587 79.3307 26.6837C78.8095 26.9114 78.247 27.0306 77.6778 27.0339C77.1837 27.0393 76.6929 26.9538 76.23 26.7817C75.8112 26.6286 75.4332 26.3821 75.125 26.0612C74.8246 25.7411 74.6033 25.3558 74.4785 24.9359C74.3394 24.4589 74.3079 23.9572 74.3862 23.4667C74.4541 22.9496 74.6238 22.4509 74.8855 21.9991C75.1358 21.5691 75.4625 21.1879 75.8497 20.8738C76.2394 20.5584 76.6825 20.3144 77.1582 20.1532C77.6464 19.985 78.1597 19.8998 78.6764 19.9011C79.121 19.8925 79.5624 19.9785 79.9708 20.1532C80.3328 20.3112 80.6477 20.5594 80.8849 20.8738C81.1295 21.208 81.2953 21.5926 81.3701 21.9991C81.4599 22.4837 81.4668 22.9798 81.3905 23.4667L81.2934 24.125H76.3944C76.4032 24.4851 76.5512 24.8278 76.8076 25.0822C76.9411 25.2039 77.0975 25.2981 77.2678 25.3592C77.4382 25.4204 77.619 25.4474 77.7999 25.4386C78.1181 25.4468 78.4324 25.367 78.7077 25.2083C78.9734 25.0476 79.2126 24.847 79.4168 24.6137L80.7394 25.6907ZM79.3745 22.6979C79.4062 22.5393 79.4026 22.3758 79.364 22.2187C79.3253 22.0617 79.2525 21.915 79.1507 21.789C79.0426 21.6621 78.9062 21.562 78.7525 21.4966C78.5987 21.4313 78.4317 21.4024 78.2648 21.4123C78.051 21.4102 77.8387 21.4477 77.6387 21.5228C77.4604 21.592 77.2945 21.6892 77.1472 21.8107C77.0079 21.9251 76.8889 22.0619 76.7951 22.2154C76.7031 22.3644 76.6365 22.5274 76.5978 22.6979H79.3745Z" fill="white"/>
<path d="M82.3985 25.6629C82.4271 25.4862 82.487 25.316 82.5753 25.1602C82.6614 25.0053 82.7731 24.8659 82.9056 24.7477C83.0377 24.6305 83.1898 24.5378 83.3548 24.4738C83.5211 24.4102 83.6978 24.3775 83.876 24.3773C84.0384 24.3713 84.2 24.4021 84.3486 24.4673C84.4972 24.5326 84.6289 24.6306 84.7338 24.754C84.8403 24.8778 84.9182 25.0234 84.962 25.1804C85.0058 25.3375 85.0145 25.5022 84.9873 25.6629C84.9288 26.0186 84.7472 26.3428 84.4739 26.5796C84.34 26.6947 84.1876 26.7868 84.0232 26.8519C83.86 26.9171 83.6856 26.9504 83.5098 26.95C83.3408 26.9518 83.1734 26.9184 83.0183 26.8519C82.8742 26.7917 82.7465 26.6984 82.6458 26.5796C82.5406 26.4535 82.4641 26.3063 82.4214 26.1481C82.3787 25.9899 82.3709 25.8244 82.3985 25.6629Z" fill="white"/>
<path d="M3.89423 -0.00391365H14.6707C16.006 -0.0122749 17.3382 0.125514 18.6432 0.406964C19.777 0.637815 20.849 1.10398 21.7892 1.775C22.6679 2.43212 23.337 3.32765 23.716 4.35388C24.1334 5.43607 24.2252 6.78491 23.9915 8.40041C23.7035 10.3552 22.9563 12.0153 21.7501 13.3807C20.5438 14.7462 18.9311 15.6131 16.912 15.9814L22.3402 27.6759H14.9837L10.6982 16.6164H7.6695L6.1356 27.6852H0L3.89423 -0.00391365ZM8.4161 11.4555H12.0349C12.5858 11.4555 13.1691 11.4358 13.7848 11.3964C14.3692 11.364 14.9457 11.246 15.4955 11.0462C16.0204 10.8504 16.4921 10.5355 16.8729 10.1264C17.2663 9.71138 17.5152 9.12463 17.6195 8.36617C17.7239 7.6627 17.6586 7.10241 17.4239 6.6853C17.1951 6.27632 16.8513 5.94259 16.4346 5.72503C15.9725 5.49148 15.4731 5.3393 14.9587 5.27525C14.4048 5.1981 13.8463 5.15909 13.287 5.15852H9.28166L8.4161 11.4555Z" fill="white"/>
<path d="M25.8255 16.0023H35.1071L38.9622 34.0701H39.0405L48.0514 16.0023H57.2861L53.3934 43.6915H47.2578L50.2427 22.455H50.1629L39.8638 43.6915H35.1838L31.1331 22.455H31.0533L28.0637 43.6915H21.9297L25.8255 16.0023Z" fill="white"/>
</g>
<defs>
<clipPath id="clip0">
<rect width="85" height="43.6916" fill="white"/>
</clipPath>
</defs>
</svg>
