<svg width="202" height="105" viewBox="0 0 202 105" fill="none" xmlns="http://www.w3.org/2000/svg">
<path d="M74.7142 24.5522C73.7824 25.572 72.6426 26.38 71.3718 26.9216C70.1343 27.4616 68.8001 27.7447 67.45 27.7535C66.2767 27.7658 65.1112 27.5631 64.011 27.1556C63.0195 26.7876 62.1243 26.1997 61.3927 25.4361C60.6793 24.6713 60.1542 23.7506 59.8589 22.7473C59.5289 21.6103 59.4541 20.4144 59.6398 19.2451C59.7986 18.0096 60.2013 16.8179 60.8245 15.7393C61.4205 14.7147 62.1953 13.8053 63.1122 13.0542C64.0355 12.3014 65.0856 11.7191 66.2133 11.3347C67.373 10.9332 68.5921 10.7299 69.8194 10.7331C70.8743 10.7132 71.9213 10.9183 72.8907 11.3347C73.7495 11.7118 74.4966 12.304 75.0596 13.0542C75.6366 13.8534 76.0298 14.7703 76.2109 15.7393C76.424 16.8969 76.4403 18.0821 76.2591 19.2451L76.014 20.7975H64.4009C64.4262 21.6575 64.7781 22.4755 65.3851 23.0852C65.7023 23.3749 66.0735 23.5992 66.4776 23.7451C66.8816 23.8911 67.3105 23.9558 67.7396 23.9357C68.4921 23.9559 69.2358 23.7696 69.8899 23.3972C70.5216 23.0138 71.0903 22.5353 71.576 21.9785L74.7142 24.5522ZM71.4757 17.4105C71.5531 17.0291 71.5446 16.6352 71.4508 16.2575C71.357 15.8798 71.1803 15.5277 70.9335 15.2268C70.6777 14.9229 70.3545 14.6831 69.9895 14.5264C69.6245 14.3697 69.228 14.3005 68.8315 14.3243C68.3239 14.3187 67.8198 14.4095 67.346 14.5917C66.9231 14.7555 66.5294 14.9862 66.1798 15.2751C65.8492 15.5493 65.5668 15.877 65.3442 16.2444C65.1255 16.5995 64.9674 16.9886 64.8763 17.3957L71.4757 17.4105Z" fill="#242424"/>
<path d="M88.5968 25.3168H88.5299C87.895 26.153 87.0399 26.7959 86.0602 27.1737C85.1021 27.5454 84.0835 27.7368 83.0558 27.7382C82.332 27.7431 81.6117 27.6367 80.9203 27.4225C80.2869 27.2295 79.7011 26.9056 79.2008 26.4718C78.7209 26.0475 78.3588 25.5064 78.1498 24.9008C77.9203 24.2019 77.8629 23.4578 77.9827 22.732C78.1046 21.4926 78.6673 20.3382 79.5685 19.4787C80.448 18.7011 81.4839 18.1211 82.6064 17.7777C83.797 17.4066 85.03 17.1882 86.2756 17.1278C87.5557 17.061 88.7181 17.0275 89.7629 17.0275C89.8359 16.6467 89.8134 16.2536 89.6974 15.8836C89.5814 15.5135 89.3755 15.178 89.0981 14.907C88.5172 14.3749 87.7499 14.0934 86.9627 14.1233C86.1599 14.118 85.3664 14.2945 84.6416 14.6396C83.8957 14.9999 83.2134 15.479 82.6212 16.0582L80.3521 13.3212C81.3937 12.4572 82.5878 11.7959 83.8728 11.3714C85.1472 10.9411 86.4829 10.7203 87.828 10.7178C89.0371 10.6751 90.2433 10.8629 91.3821 11.2711C92.2175 11.584 92.9351 12.1485 93.4359 12.8866C93.928 13.6764 94.2093 14.5791 94.2529 15.5086C94.3238 16.7075 94.2628 17.9106 94.0709 19.0961L92.9345 27.3371H88.3294L88.5968 25.3168ZM88.062 20.2437C87.6906 20.2437 87.2115 20.2623 86.6433 20.2957C86.0788 20.3284 85.5196 20.4231 84.9758 20.578C84.4572 20.7205 83.9698 20.9585 83.5386 21.2799C83.3354 21.4352 83.1666 21.6309 83.0426 21.8546C82.9186 22.0782 82.8422 22.3251 82.8181 22.5797C82.7671 22.8461 82.8022 23.1219 82.9183 23.367C83.0329 23.5818 83.1925 23.7693 83.3863 23.9167C83.5984 24.0783 83.8429 24.1923 84.1031 24.2509C84.3705 24.3163 84.6448 24.3499 84.9201 24.3512C85.411 24.351 85.8996 24.2836 86.3722 24.1507C86.832 24.0254 87.2711 23.834 87.6758 23.5824C88.0636 23.3419 88.3995 23.0262 88.6636 22.654C88.9387 22.258 89.111 21.7998 89.165 21.3207L89.2987 20.2511L88.062 20.2437Z" fill="#242424"/>
<path d="M113.093 27.3522H108.484L108.751 25.2168H108.685C108.426 25.5449 108.129 25.8416 107.801 26.1007C107.413 26.4161 106.993 26.6911 106.549 26.9214C106.065 27.1721 105.556 27.3725 105.03 27.5194C104.493 27.6742 103.937 27.753 103.378 27.7533C102.284 27.7749 101.198 27.5648 100.191 27.1368C99.3019 26.75 98.5186 26.1552 97.9071 25.4025C97.2913 24.6254 96.863 23.7167 96.6556 22.7471C96.4184 21.6393 96.3895 20.4971 96.5702 19.3787C96.7236 18.2508 97.0506 17.1534 97.5395 16.1254C98.0122 15.1163 98.6386 14.1867 99.3964 13.3697C100.136 12.575 101.018 11.9252 101.996 11.4534C102.995 10.9692 104.091 10.7227 105.201 10.7329C106.179 10.7219 107.152 10.8867 108.072 11.2194C108.905 11.5146 109.604 12.1 110.04 12.8683H110.107L111.641 2.12427H116.614L113.093 27.3522ZM109.621 19.245C109.799 18.0194 109.587 17.0167 108.985 16.2739C108.384 15.5312 107.452 15.1598 106.182 15.1598C105.041 15.1072 103.927 15.5077 103.08 16.2739C102.256 17.062 101.731 18.1123 101.595 19.245C101.417 20.4656 101.623 21.4559 102.215 22.216C102.807 22.9761 103.735 23.3475 105.001 23.3302C106.146 23.3785 107.265 22.9788 108.12 22.216C108.953 21.4319 109.484 20.3805 109.621 19.245Z" fill="#242424"/>
<path d="M126.039 29.9891C125.593 30.8582 125.17 31.6257 124.769 32.2917C124.395 32.9292 123.917 33.4992 123.354 33.9778C122.773 34.4529 122.103 34.8054 121.382 35.0139C120.42 35.2721 119.425 35.3897 118.429 35.363C117.192 35.3717 115.962 35.1683 114.794 34.7614L116.027 30.6762C116.722 31.0106 117.484 31.1821 118.255 31.1775C118.73 31.1883 119.203 31.1257 119.659 30.9919C120.013 30.8822 120.342 30.7015 120.624 30.4608C120.901 30.2144 121.138 29.9262 121.326 29.6066C121.527 29.2761 121.75 28.8861 121.995 28.4405L122.5 27.4823L117.694 11.1415H123.101L125.772 21.8559H125.838L130.912 11.1415H136.051L126.039 29.9891Z" fill="#242424"/>
<path d="M147.356 62.0727H147.29C146.655 62.9091 145.8 63.5522 144.82 63.9296C143.862 64.3042 142.844 64.4969 141.815 64.4978C141.092 64.5014 140.372 64.395 139.68 64.1821C139.046 63.9887 138.46 63.6635 137.96 63.2277C137.481 62.8045 137.119 62.2646 136.909 61.6604C136.68 60.9614 136.623 60.2174 136.742 59.4916C136.864 58.2522 137.427 57.0978 138.328 56.2382C139.205 55.4574 140.242 54.8769 141.366 54.5373C142.557 54.1649 143.789 53.9453 145.035 53.8837C146.318 53.8168 147.48 53.7834 148.523 53.7834C148.595 53.4031 148.573 53.0107 148.457 52.6413C148.341 52.2719 148.135 51.937 147.858 51.6665C147.277 51.1345 146.51 50.853 145.722 50.8829C144.92 50.8776 144.126 51.0541 143.401 51.3991C142.655 51.7595 141.973 52.2386 141.381 52.8178L139.112 50.0807C140.153 49.2156 141.347 48.553 142.632 48.1273C143.907 47.6981 145.243 47.4786 146.588 47.4773C147.797 47.4337 149.003 47.6202 150.142 48.027C150.977 48.3413 151.695 48.907 152.196 49.6462C152.688 50.436 152.969 51.3387 153.013 52.2682C153.082 53.4672 153.02 54.6703 152.827 55.8557L151.694 64.0967H147.089L147.356 62.0727ZM146.822 56.9996C146.45 56.9996 145.971 57.0182 145.403 57.0516C144.838 57.0822 144.279 57.1768 143.735 57.3338C143.218 57.4756 142.731 57.7138 142.302 58.0357C142.097 58.1898 141.928 58.3852 141.804 58.6091C141.679 58.833 141.604 59.0805 141.581 59.3356C141.53 59.6008 141.566 59.8754 141.682 60.1192C141.796 60.3351 141.956 60.5239 142.15 60.6725C142.363 60.8316 142.607 60.9442 142.866 61.0031C143.134 61.0684 143.408 61.1021 143.683 61.1034C144.174 61.1032 144.663 61.0357 145.136 60.9028C145.595 60.7788 146.034 60.5887 146.439 60.3383C146.83 60.1022 147.17 59.7903 147.438 59.421C147.712 59.0244 147.884 58.5666 147.94 58.0877L148.073 57.0182L146.822 56.9996Z" fill="#242424"/>
<path d="M171.85 64.108H167.245L167.512 61.9726H167.445C167.185 62.2998 166.889 62.5964 166.561 62.8565C166.173 63.1706 165.754 63.4444 165.31 63.6735C164.825 63.9254 164.316 64.127 163.791 64.2751C163.255 64.4302 162.7 64.5089 162.142 64.5091C161.046 64.5245 159.959 64.3094 158.952 63.8778C158.062 63.4896 157.279 62.8936 156.668 62.1397C156.051 61.3645 155.623 60.4568 155.416 59.488C155.179 58.379 155.15 57.2355 155.331 56.1159C155.485 54.9882 155.812 53.8909 156.3 52.8626C156.774 51.8552 157.4 50.9269 158.157 50.1106C158.896 49.3137 159.778 48.6624 160.757 48.1906C161.756 47.7094 162.853 47.4642 163.962 47.4738C164.938 47.4634 165.909 47.6269 166.829 47.9566C167.664 48.2511 168.365 48.8382 168.801 49.6093H168.868L170.401 38.8652H175.408L171.85 64.108ZM168.381 55.997C168.559 54.7752 168.348 53.7687 167.746 53.026C167.144 52.2832 166.212 51.8896 164.942 51.8896C163.799 51.8434 162.684 52.252 161.841 53.026C161.015 53.8135 160.49 54.8641 160.356 55.997C160.177 57.2226 160.385 58.2253 160.972 58.9681C161.559 59.7109 162.491 60.1045 163.761 60.1045C164.91 60.1479 166.029 59.74 166.881 58.9681C167.715 58.1849 168.246 57.133 168.381 55.997Z" fill="#242424"/>
<path d="M191.574 61.3041C190.645 62.328 189.505 63.1366 188.231 63.6735C186.995 64.2168 185.66 64.5012 184.309 64.5091C183.137 64.522 181.972 64.318 180.874 63.9075C179.88 63.5419 178.983 62.9537 178.252 62.188C177.539 61.4241 177.014 60.5048 176.718 59.5029C176.388 58.3646 176.313 57.1675 176.499 55.997C176.66 54.7632 177.063 53.5732 177.684 52.4949C178.278 51.4689 179.053 50.5592 179.972 49.8098C180.896 49.0571 181.948 48.4748 183.076 48.0903C184.235 47.6889 185.453 47.4855 186.679 47.4887C187.734 47.4681 188.781 47.6733 189.75 48.0903C190.609 48.4674 191.356 49.0596 191.919 49.8098C192.499 50.6072 192.893 51.5249 193.07 52.4949C193.283 53.6513 193.3 54.8353 193.119 55.997L192.888 57.568H181.264C181.285 58.427 181.636 59.245 182.244 59.852C182.561 60.1424 182.932 60.3671 183.337 60.5131C183.741 60.659 184.17 60.7234 184.599 60.7024C185.354 60.7219 186.1 60.5316 186.753 60.1528C187.384 59.7693 187.951 59.2908 188.435 58.7341L191.574 61.3041ZM188.335 54.1624C188.41 53.784 188.402 53.3938 188.31 53.0191C188.218 52.6444 188.046 52.2943 187.804 51.9935C187.548 51.6908 187.224 51.452 186.859 51.296C186.494 51.14 186.098 51.0711 185.702 51.0948C185.195 51.0897 184.691 51.1791 184.217 51.3585C183.794 51.5236 183.4 51.7556 183.05 52.0455C182.72 52.3185 182.437 52.6449 182.215 53.0111C181.997 53.3666 181.839 53.7556 181.747 54.1624H188.335Z" fill="#242424"/>
<path d="M195.51 61.2374C195.578 60.8159 195.72 60.4098 195.93 60.0378C196.134 59.6682 196.399 59.3355 196.713 59.0537C197.027 58.774 197.388 58.5526 197.779 58.4C198.174 58.2483 198.593 58.1703 199.016 58.1698C199.401 58.1554 199.784 58.2288 200.137 58.3845C200.49 58.5402 200.802 58.7741 201.051 59.0685C201.304 59.3641 201.489 59.7114 201.593 60.0862C201.697 60.4609 201.717 60.8539 201.653 61.2374C201.514 62.0862 201.083 62.8599 200.435 63.4248C200.117 63.6996 199.755 63.9192 199.365 64.0748C198.978 64.2303 198.564 64.3098 198.147 64.3087C197.746 64.313 197.349 64.2333 196.981 64.0748C196.639 63.9311 196.336 63.7084 196.097 63.4248C195.847 63.124 195.666 62.7728 195.564 62.3952C195.463 62.0177 195.445 61.6228 195.51 61.2374Z" fill="#242424"/>
<path d="M9.23986 -0.00658244H34.8095C37.9779 -0.0265342 41.1388 0.302261 44.2352 0.973866C46.9254 1.52473 49.4691 2.63711 51.7 4.23831C53.7848 5.80636 55.3724 7.94328 56.2717 10.3921C57.262 12.9745 57.4799 16.1931 56.9253 20.048C56.242 24.7126 54.4692 28.674 51.6071 31.9323C48.745 35.1905 44.9185 37.2591 40.1277 38.1381L53.0072 66.0437H35.5523L25.3838 39.6533H18.1976L14.5581 66.066H-0.00012207L9.23986 -0.00658244ZM19.9691 27.3383H28.5554C29.8627 27.3383 31.2467 27.2912 32.7075 27.1971C34.0943 27.1199 35.4621 26.8383 36.7667 26.3615C38.0121 25.8944 39.1312 25.1428 40.0349 24.1667C40.9683 23.1763 41.5588 21.7762 41.8063 19.9663C42.0539 18.2877 41.8992 16.9507 41.3421 15.9554C40.7994 14.9795 39.9837 14.1831 38.995 13.664C37.8983 13.1067 36.7135 12.7435 35.4929 12.5907C34.1787 12.4066 32.8535 12.3135 31.5265 12.3122H22.0228L19.9691 27.3383Z" fill="#242424"/>
<path d="M61.2775 38.1852H83.3005L92.4476 81.2989H92.6333L114.014 38.1852H135.925L126.689 104.258H112.131L119.213 53.5827H119.024L94.5868 104.258H83.4824L73.8711 53.5827H73.6817L66.5883 104.258H52.0338L61.2775 38.1852Z" fill="#242424"/>
</svg>
