<svg width="30" height="26" viewBox="0 0 30 26" fill="none" xmlns="http://www.w3.org/2000/svg">
<path fill-rule="evenodd" clip-rule="evenodd" d="M7.33376 18.9586C6.57433 18.9586 5.95869 18.343 5.95869 17.5835L5.95869 5.45035L2.37337 9.23498C1.85109 9.7863 0.980758 9.80984 0.429438 9.28755C-0.121882 8.76527 -0.145419 7.89494 0.376867 7.34362L7.33376 -2.35293e-05L14.2907 7.34362C14.8129 7.89494 14.7894 8.76527 14.2381 9.28755C13.6868 9.80984 12.8164 9.7863 12.2942 9.23498L8.70883 5.45035L8.70883 17.5835C8.70883 18.343 8.09319 18.9586 7.33376 18.9586Z" fill="#242424"/>
<path fill-rule="evenodd" clip-rule="evenodd" d="M22.0012 7.04138C22.7606 7.04138 23.3763 7.65702 23.3763 8.41645V20.5497L26.9616 16.765C27.4839 16.2137 28.3542 16.1902 28.9055 16.7125C29.4568 17.2347 29.4804 18.1051 28.9581 18.6564L22.0012 26L15.0443 18.6564C14.522 18.1051 14.5456 17.2347 15.0969 16.7125C15.6482 16.1902 16.5185 16.2137 17.0408 16.765L20.6261 20.5497V8.41645C20.6261 7.65702 21.2418 7.04138 22.0012 7.04138Z" fill="#242424"/>
</svg>
