<svg width="44" height="44" viewBox="0 0 44 44" fill="none" xmlns="http://www.w3.org/2000/svg">
<circle cx="22" cy="22" r="22" fill="#242424"/>
<path fill-rule="evenodd" clip-rule="evenodd" d="M44 22C44 28.8503 40.8691 34.9693 35.9602 39.0041C35.2928 31.8812 29.2974 26.3068 22.0001 26.3068C14.7026 26.3068 8.70723 31.8813 8.03991 39.0042C3.13095 34.9694 0 28.8503 0 22C0 9.84974 9.84974 0 22 0C34.1503 0 44 9.84974 44 22ZM32.859 40.3286C32.859 40.6067 32.8486 40.8824 32.828 41.1552C29.6313 42.9662 25.9364 44 22 44C18.0637 44 14.3688 42.9662 11.1721 41.1553C11.1515 40.8824 11.1411 40.6068 11.1411 40.3286C11.1411 34.3314 16.0028 29.4697 22.0001 29.4697C27.9973 29.4697 32.859 34.3314 32.859 40.3286ZM26.757 15.5467C26.757 18.498 24.3645 20.8905 21.4132 20.8905C18.4619 20.8905 16.0694 18.498 16.0694 15.5467C16.0694 12.5954 18.4619 10.2029 21.4132 10.2029C24.3645 10.2029 26.757 12.5954 26.757 15.5467ZM29.9199 15.5467C29.9199 20.2448 26.1113 24.0534 21.4132 24.0534C16.7151 24.0534 12.9065 20.2448 12.9065 15.5467C12.9065 10.8486 16.7151 7.04002 21.4132 7.04002C26.1113 7.04002 29.9199 10.8486 29.9199 15.5467Z" fill="white"/>
</svg>
